<?xml version="1.0" standalone="no"?>
<!DOCTYPE svg PUBLIC "-//W3C//DTD SVG 20010904//EN"
 "http://www.w3.org/TR/2001/REC-SVG-20010904/DTD/svg10.dtd">
<svg version="1.0" xmlns="http://www.w3.org/2000/svg"
 width="1647.000000pt" height="1647.000000pt" viewBox="0 0 1647.000000 1647.000000"
 preserveAspectRatio="xMidYMid meet">
<metadata>
Created by potrace 1.14, written by Peter Selinger 2001-2017
</metadata>
<g transform="translate(0.000000,1647.000000) scale(0.100000,-0.100000)"
fill="#000000" stroke="none">
<path d="M7652 13412 c-48 -32 -95 -92 -110 -142 -24 -74 -30 -286 -26 -855 5
-597 12 -735 39 -765 8 -9 15 -23 15 -31 0 -26 76 -90 114 -96 20 -3 39 -10
42 -14 8 -13 1001 -12 1009 1 3 6 16 10 27 10 59 0 121 72 156 182 22 66 22
77 22 782 0 394 -4 717 -9 720 -4 3 -11 24 -15 46 -8 54 -82 156 -118 165 -15
4 -30 11 -33 16 -4 5 -224 9 -539 9 l-533 0 -41 -28z"/>
<path d="M6245 12890 c-3 -5 -18 -10 -31 -10 -18 0 -42 -17 -79 -55 -45 -46
-55 -63 -66 -112 -7 -32 -16 -62 -21 -67 -11 -13 -10 -1421 1 -1444 5 -9 14
-39 20 -65 17 -72 92 -166 134 -167 9 0 17 -4 17 -10 0 -13 1057 -13 1065 0 3
6 15 10 26 10 10 0 19 5 19 10 0 6 6 10 13 10 14 1 62 66 92 125 20 39 20 57
20 810 l0 770 -26 50 c-39 72 -103 135 -139 135 -10 0 -22 5 -25 10 -4 6 -185
10 -510 10 -325 0 -506 -4 -510 -10z"/>
<path d="M9130 12878 c-19 -11 -52 -44 -73 -73 -69 -99 -68 -86 -65 -906 3
-676 4 -737 21 -768 9 -19 17 -39 17 -46 0 -11 59 -76 93 -102 9 -7 25 -13 36
-13 11 0 23 -4 26 -10 4 -6 187 -10 516 -10 333 0 509 3 509 10 0 6 9 10 20
10 54 0 131 85 151 167 6 26 16 52 20 57 13 15 11 1453 -2 1461 -5 4 -9 17 -8
28 5 52 -69 162 -131 195 -42 22 -43 22 -568 21 -507 -1 -528 -2 -562 -21z"/>
<path d="M11521 12656 c-69 -25 -141 -121 -141 -188 0 -10 -28 -47 -62 -82
-41 -41 -70 -81 -81 -113 -10 -26 -25 -63 -33 -81 -8 -18 -14 -49 -14 -68 0
-19 -4 -43 -10 -53 -21 -39 -33 -157 -40 -381 -8 -244 -9 -253 -66 -435 -19
-60 -41 -138 -51 -172 -9 -35 -21 -63 -27 -63 -6 0 -18 13 -27 29 -44 77 -199
92 -304 28 -55 -33 -137 -101 -162 -134 -15 -20 -44 -53 -65 -73 -20 -21 -48
-62 -62 -92 -14 -29 -41 -72 -60 -94 -18 -22 -44 -61 -56 -86 -26 -56 -266
-305 -325 -337 -22 -12 -53 -32 -70 -44 -92 -69 -119 -87 -126 -87 -5 0 -33
-16 -64 -35 -30 -20 -63 -38 -73 -42 -9 -3 -54 -23 -99 -44 -46 -22 -89 -39
-97 -39 -7 0 -19 -6 -26 -14 -6 -8 -42 -27 -80 -41 -70 -27 -150 -77 -150 -95
0 -6 -7 -10 -15 -10 -19 0 -118 -105 -184 -195 -28 -38 -79 -107 -114 -153
-34 -46 -71 -100 -82 -121 -11 -21 -35 -56 -52 -78 -18 -23 -33 -47 -33 -56 0
-8 -12 -30 -27 -50 -16 -19 -37 -50 -48 -69 -11 -18 -32 -53 -47 -78 -43 -71
-88 -171 -103 -225 -7 -27 -20 -72 -29 -100 -22 -71 -51 -256 -80 -500 -8 -66
-19 -140 -24 -165 -11 -49 -37 -403 -34 -463 1 -21 -5 -69 -13 -108 -8 -39
-15 -117 -15 -173 0 -193 -12 -346 -27 -346 -9 0 -13 16 -14 53 -1 136 -58
958 -73 1067 -2 14 -11 84 -20 155 -22 171 -63 396 -86 465 -31 93 -78 199
-104 233 -13 17 -46 73 -72 122 -26 50 -59 108 -73 130 -14 22 -34 58 -44 80
-10 22 -36 63 -58 93 -22 29 -47 71 -54 93 -8 23 -23 51 -32 64 -10 12 -38 49
-62 81 -59 78 -163 185 -231 237 -30 23 -64 50 -74 59 -11 10 -29 21 -40 24
-19 5 -60 23 -201 89 -27 13 -61 29 -75 34 -14 6 -32 15 -40 20 -8 5 -36 19
-62 31 -27 12 -50 26 -53 31 -3 4 -27 18 -53 29 -26 12 -72 40 -102 63 -30 24
-75 55 -100 71 -96 61 -279 267 -336 380 -12 23 -29 48 -38 55 -9 7 -16 18
-16 24 0 10 -41 76 -65 104 -5 6 -25 33 -44 60 -19 26 -71 80 -116 120 -65 58
-93 75 -136 86 -69 18 -214 8 -250 -16 -13 -9 -29 -17 -35 -17 -13 0 -41 79
-92 260 -46 159 -52 200 -52 333 0 345 -61 601 -170 711 -23 22 -48 57 -56 76
-59 135 -65 143 -139 179 -93 45 -139 50 -196 21 -71 -36 -117 -78 -130 -117
-13 -42 -6 -270 11 -338 5 -22 10 -94 10 -160 1 -122 22 -428 40 -565 5 -41
14 -138 20 -215 11 -148 45 -383 85 -575 20 -99 122 -383 165 -462 12 -22 27
-80 46 -181 8 -43 20 -91 28 -105 7 -15 19 -45 26 -67 16 -55 59 -166 70 -187
6 -10 10 -26 10 -36 0 -10 13 -56 30 -102 16 -47 30 -93 30 -102 0 -10 6 -32
14 -50 32 -73 76 -196 76 -209 0 -9 18 -51 41 -95 37 -71 51 -98 93 -172 34
-59 199 -201 284 -244 29 -15 84 -47 121 -72 38 -26 73 -46 78 -46 5 0 20 -11
33 -25 13 -13 42 -34 64 -46 23 -12 51 -27 63 -34 11 -6 61 -47 110 -91 48
-44 103 -91 122 -104 19 -13 51 -42 70 -63 20 -22 51 -46 70 -54 45 -19 87
-65 187 -201 124 -168 274 -486 294 -622 6 -36 17 -94 26 -130 32 -135 57
-299 74 -495 6 -66 15 -160 21 -210 6 -49 9 -128 6 -175 -3 -47 -10 -211 -16
-365 -6 -154 -15 -345 -21 -425 -24 -367 -30 -476 -40 -783 -5 -180 -10 -506
-10 -725 0 -358 2 -400 18 -432 9 -19 28 -40 42 -47 27 -12 2341 -29 2406 -17
22 4 42 17 56 36 21 30 21 36 20 442 -2 400 -12 758 -32 1136 -10 177 -16 287
-43 740 -7 113 -12 333 -11 490 2 407 21 627 75 850 16 69 34 145 39 169 6 25
19 63 29 85 10 23 24 59 31 81 20 65 141 305 185 366 103 144 137 188 182 235
48 51 185 178 239 223 37 30 213 151 220 151 3 0 25 16 49 36 24 20 50 37 57
38 18 2 78 39 78 47 0 3 18 14 40 24 22 10 40 21 40 24 0 3 14 12 31 20 17 7
51 31 75 52 25 22 49 39 55 39 30 0 199 164 199 194 0 8 11 28 24 44 14 16 31
46 39 68 8 21 33 89 55 149 23 61 48 137 56 170 46 188 68 264 105 360 23 58
41 113 41 121 0 8 11 36 24 62 13 26 26 64 29 85 3 21 15 57 26 80 10 23 22
58 26 77 11 52 63 209 86 256 10 22 19 45 19 50 0 6 9 28 19 50 29 59 71 224
71 275 0 18 4 48 9 68 17 67 41 215 47 291 3 41 10 113 16 160 17 147 25 230
37 405 6 94 17 229 22 300 38 457 38 516 3 570 -27 41 -91 65 -170 64 -38 0
-84 -6 -103 -13z"/>
</g>
</svg>
